<svg xmlns="http://www.w3.org/2000/svg" xmlns:xlink="http://www.w3.org/1999/xlink" viewBox="0 0 721.74 456.13"><defs><style>.cls-1{fill:url(#radial-gradient);}.cls-2{fill:url(#radial-gradient-2);}.cls-3{fill:url(#radial-gradient-3);}.cls-4{fill:url(#radial-gradient-4);}.cls-5{fill:url(#radial-gradient-5);}.cls-6{fill:url(#radial-gradient-6);}.cls-7{fill:url(#radial-gradient-7);}.cls-8{fill:url(#radial-gradient-8);}.cls-9{fill:url(#radial-gradient-9);}.cls-10{fill:url(#radial-gradient-10);}.cls-11{fill:url(#radial-gradient-11);}.cls-12{fill:url(#radial-gradient-12);}.cls-13{fill:url(#radial-gradient-13);}.cls-14{fill:url(#radial-gradient-14);}.cls-15{fill:url(#radial-gradient-15);}.cls-16{fill:url(#radial-gradient-16);}</style><radialGradient id="radial-gradient" cx="670.75" cy="309.64" r="132.44" gradientUnits="userSpaceOnUse"><stop offset="0" stop-color="#fff"/><stop offset="0.19" stop-color="#c0f3ff"/><stop offset="0.45" stop-color="#6fe4ff"/><stop offset="0.67" stop-color="#33d9ff"/><stop offset="0.82" stop-color="#0ed3ff"/><stop offset="0.91" stop-color="#00d0ff"/></radialGradient><radialGradient id="radial-gradient-2" cx="670.37" cy="551.25" r="102.47" xlink:href="#radial-gradient"/><radialGradient id="radial-gradient-3" cx="780.72" cy="321.78" r="123.33" xlink:href="#radial-gradient"/><radialGradient id="radial-gradient-4" cx="905.89" cy="370.75" r="123.87" xlink:href="#radial-gradient"/><radialGradient id="radial-gradient-5" cx="556.59" cy="309.54" r="114.43" xlink:href="#radial-gradient"/><radialGradient id="radial-gradient-6" cx="434" cy="374.43" r="120.86" xlink:href="#radial-gradient"/><radialGradient id="radial-gradient-7" cx="487.84" cy="334.41" r="115.88" xlink:href="#radial-gradient"/><radialGradient id="radial-gradient-8" cx="853.36" cy="334.71" r="115.68" xlink:href="#radial-gradient"/><radialGradient id="radial-gradient-9" cx="751" cy="479.58" r="18.29" xlink:href="#radial-gradient"/><radialGradient id="radial-gradient-10" cx="589.43" cy="477.46" r="16.53" xlink:href="#radial-gradient"/><radialGradient id="radial-gradient-11" cx="624.97" cy="468.86" r="15.6" xlink:href="#radial-gradient"/><radialGradient id="radial-gradient-12" cx="874.01" cy="203.73" r="11.95" xlink:href="#radial-gradient"/><radialGradient id="radial-gradient-13" cx="564.46" cy="497.43" r="11.37" xlink:href="#radial-gradient"/><radialGradient id="radial-gradient-14" cx="365.11" cy="256.27" r="10.25" xlink:href="#radial-gradient"/><radialGradient id="radial-gradient-15" cx="465.29" cy="201.31" r="10.19" xlink:href="#radial-gradient"/><radialGradient id="radial-gradient-16" cx="777.45" cy="498.57" r="10.17" xlink:href="#radial-gradient"/></defs><title>LOGO-Raw</title><g id="Layer_3" data-name="Layer 3"><path class="cls-1" d="M691.33,477.87c-6-5.51-5-12-5.65-17.78-4.65-42.95,4-84.27,14.78-125.5,8.48-32.56,17.18-65.21,16.35-99.39-.69-28.3-18.43-46.74-45.58-46.92-27.61-.19-46.64,18.85-46.67,47.51,0,41.33,11.85,80.61,21.71,120.18,8.7,34.93,13.86,70.09,9.13,106.13-.64,4.88.3,10.31-5.68,15.75.67-75.43-34.35-140.28-53.16-209.4-5.23-19.21-10.17-38.7-7.33-58.89,6.56-46.78,47.7-74.66,98.07-66.83,44.12,6.87,71.87,47.18,64.67,93.71-4.71,30.44-14.55,59.46-25,88.21C709.06,374,691.85,423.49,691.33,477.87Z" transform="translate(-309.69 -141.42)"/><path class="cls-2" d="M807.7,505.2c-1.19,24.22-18.45,46.28-44.21,53.95-7.79,2.32-15.89,4.56-23.93,4.88-16.45.65-28.58,7.31-39.12,20.12-13.27,16.12-43.22,18.48-56.17,2.77-14.16-17.17-31.54-21.89-51.74-24.7-32.41-4.53-54-24.73-59.31-53.37a12.84,12.84,0,0,1-.05-3.89C624.72,555.88,715.71,556.63,807.7,505.2Z" transform="translate(-309.69 -141.42)"/><path class="cls-3" d="M707.32,480c6-30.34,17.4-57,32.19-82.5,21.48-36.95,47.88-71,64.91-110.56,3.83-8.86,7.43-18,9.69-27.33,10.55-43.67-6.47-72.67-50.39-86.66-5.67-1.81-11.48-3.17-18.43-5.06,32.36-10.83,69.54-.77,90.45,23.58,21.9,25.49,24.27,59,6.87,92.92-14.51,28.29-34.48,52.77-54.08,77.47-26.61,33.55-52.45,67.56-70.71,106.65C715.89,472.64,714.51,477.8,707.32,480Z" transform="translate(-309.69 -141.42)"/><path class="cls-4" d="M780.35,488.17c31.18-32.08,70.68-51.07,110-70.47,28.81-14.2,57.26-29.12,81.54-50.77,36.11-32.21,38.52-67.61,4.49-106.55-3.31-3.8-6.87-7.39-11-11.82,26.86,4.31,55.85,30,62.72,56.57,8,31,2,59-23.13,80.6-24.76,21.36-54.92,32.8-84.92,44.36-45.63,17.59-91.65,34.36-132.68,61.84C783.49,493.59,780.41,493.71,780.35,488.17Z" transform="translate(-309.69 -141.42)"/><path class="cls-5" d="M617.4,455.1C593.15,410,560.05,371.21,528.87,331c-13.46-17.34-25.82-35.53-34.11-56-22.37-55.24,10.34-107.54,69.77-111.39,10-.65,20.41-1.65,31.49,3.92-9.62,3.13-18.19,5.34-26.29,8.67-40.41,16.6-53.72,45.25-41.23,87.34,10.59,35.74,30.88,66.37,50.72,97.24,17.83,27.72,36.17,55.16,45.45,87.33C627.07,455.48,624.12,457.26,617.4,455.1Z" transform="translate(-309.69 -141.42)"/><path class="cls-6" d="M554,491.74c-49.63-33.08-106.43-50.39-160.78-73.08-17-7.08-33.48-15-48.34-25.85-50.28-36.74-46-103.82,8.4-134.8,6.28-2,9.76-.93,7.29,6.66-33.54,44.05-20,75.25,7.88,101.23,14.61,13.62,31.47,24.13,48.7,34.09,36.53,21.14,76.79,35.45,111.12,60.63,10.22,7.49,21,14.37,28.86,24.57C558.67,488.6,559.58,491.72,554,491.74Z" transform="translate(-309.69 -141.42)"/><path class="cls-7" d="M577.67,467.61c-39.77-40-87.66-69.76-131.38-104.76-17.16-13.74-33.46-28.36-44.1-48.19-24.58-45.81-1.29-98.69,49.45-112,4.6-.08,10.37-4.76,12.93,3.27C424,236.74,413.8,268.48,444.71,314.51c24.2,36,58.78,61.93,90.17,90.92,17.17,15.86,34.54,31.58,46.87,51.83C583.11,461.78,585.91,466.87,577.67,467.61Z" transform="translate(-309.69 -141.42)"/><path class="cls-8" d="M759.37,457.76c21.75-33.25,53-57.14,81.92-83.35,19.25-17.45,38.21-35.21,53.18-56.59,28.81-41.13,29.4-74.4-12.63-107.31-2.15-7.18.47-9.74,7.65-7.86,55.86,13,78.1,78.93,42.1,124.34-23.13,29.18-53.77,49.52-83.27,71.13-29.18,21.37-57.81,43.31-83.44,68.93C754.91,468.77,757.53,463,759.37,457.76Z" transform="translate(-309.69 -141.42)"/><path class="cls-9" d="M759.37,457.76c.37,4-.53,8.69,5.51,9.29-8.32,12.1-19.65,21.82-27.75,34.35C741.16,485.08,747.76,470.16,759.37,457.76Z" transform="translate(-309.69 -141.42)"/><path class="cls-10" d="M577.67,467.61c4.2-2.33,3.52-6.58,4.08-10.35,10.21,11.35,17.43,24.29,19.45,40.41Z" transform="translate(-309.69 -141.42)"/><path class="cls-11" d="M617.4,455.1c4.52-.14,6.79-2.62,7.27-7,6.82,12.7,9,26.43,7.36,41.45Q624.71,472.35,617.4,455.1Z" transform="translate(-309.69 -141.42)"/><path class="cls-12" d="M889.49,202.65c-4.64.59-7.53,2.88-7.65,7.86l-23.31-13.35C872.39,196.53,881.35,197,889.49,202.65Z" transform="translate(-309.69 -141.42)"/><path class="cls-13" d="M554,491.74c1-2.19,2.09-4.37,3.13-6.55,8.67,5.64,14.27,13.84,17.74,24.47Z" transform="translate(-309.69 -141.42)"/><path class="cls-14" d="M360.59,264.67c-.19-4.67-3.06-6.41-7.29-6.66,5.77-7,14.51-8.09,23.62-10.15Q368.76,256.27,360.59,264.67Z" transform="translate(-309.69 -141.42)"/><path class="cls-15" d="M464.57,205.92c-3.44-4.55-8.74-1.72-12.93-3.27,8.06-4.9,16.82-6.47,27.31-5.79C475.78,203.69,470.19,204.83,464.57,205.92Z" transform="translate(-309.69 -141.42)"/><path class="cls-16" d="M780.35,488.17c1.62,2.61,4.28,3.29,7,3.76l-19.89,17C769.06,499.94,773.93,493.53,780.35,488.17Z" transform="translate(-309.69 -141.42)"/></g></svg>